<svg width="26" height="22" viewBox="0 0 26 22" fill="none" xmlns="http://www.w3.org/2000/svg">
<path d="M23.9999 11.7071C24.3904 12.0976 25.0236 12.0976 25.4141 11.7071C25.8047 11.3166 25.8047 10.6834 25.4141 10.2929L23.9999 11.7071ZM13.9999 1.70711L23.9999 11.7071L25.4141 10.2929L15.4141 0.292893L13.9999 1.70711Z" fill="white"/>
<path d="M23.14 12.207C23.6923 12.207 24.14 11.7593 24.14 11.207C24.14 10.6547 23.6923 10.207 23.14 10.207V12.207ZM0 12.207L23.14 12.207V10.207L0 10.207L0 12.207Z" fill="white"/>
<path d="M25.4141 11.9141C25.8047 11.5236 25.8047 10.8904 25.4141 10.4999C25.0236 10.1094 24.3904 10.1094 23.9999 10.4999L25.4141 11.9141ZM15.4141 21.9141L25.4141 11.9141L23.9999 10.4999L13.9999 20.4999L15.4141 21.9141Z" fill="white"/>
</svg>
