<svg width="40" height="40" viewBox="0 0 40 40" fill="none" xmlns="http://www.w3.org/2000/svg">
<g clip-path="url(#clip0_212_258)">
<path d="M20.0014 0.000488281C8.95524 0.000488281 0 8.95448 0 19.9979C0 28.1891 4.92384 35.224 11.9723 38.3169C11.9126 36.9193 11.9592 35.2447 12.3172 33.7258C12.7039 32.1012 14.8934 22.8262 14.8934 22.8262C14.8934 22.8262 14.2552 21.5493 14.2552 19.6632C14.2552 16.6987 15.9726 14.4858 18.1101 14.4858C19.9313 14.4858 20.8081 15.853 20.8081 17.488C20.8081 19.3156 19.6434 22.0525 19.0441 24.585C18.5434 26.7071 20.1077 28.4381 22.1986 28.4381C25.9888 28.4381 28.5416 23.5694 28.5416 17.8045C28.5416 13.4222 25.5892 10.1412 20.2193 10.1412C14.1514 10.1412 10.3742 14.6648 10.3742 19.7176C10.3742 21.461 10.8853 22.6887 11.6921 23.6394C12.0606 24.0778 12.1124 24.2543 11.9775 24.755C11.8815 25.1234 11.6636 26.0092 11.5702 26.3594C11.4377 26.8667 11.0279 27.047 10.5688 26.8615C7.77496 25.7186 6.47518 22.6614 6.47518 19.2209C6.47518 13.5389 11.2667 6.72782 20.7667 6.72782C28.4038 6.72782 33.4315 12.2516 33.4315 18.1831C33.4315 26.0286 29.0681 31.891 22.6371 31.891C20.4787 31.891 18.4474 30.7222 17.7521 29.3965C17.7521 29.3965 16.59 34.0059 16.3462 34.8943C15.9207 36.4353 15.0906 37.9782 14.3329 39.1793C16.1309 39.7098 18.0323 39.999 20.0014 39.999C31.0474 39.999 40 31.0452 40 19.9977C40 8.95448 31.0474 0.000488281 20.0014 0.000488281Z" fill="url(#paint0_linear_212_258)"/>
</g>
<defs>
<linearGradient id="paint0_linear_212_258" x1="20" y1="0.000488281" x2="20" y2="39.999" gradientUnits="userSpaceOnUse">
<stop stop-color="#4C2213"/>
<stop offset="0.477387" stop-color="#21110B" stop-opacity="0.64196"/>
<stop offset="1" stop-color="#1A0B06" stop-opacity="0.25"/>
</linearGradient>
<clipPath id="clip0_212_258">
<rect width="40" height="40" fill="white"/>
</clipPath>
</defs>
</svg>
