<svg width="26" height="22" viewBox="0 0 26 22" fill="none" xmlns="http://www.w3.org/2000/svg">
<path d="M1.70711 10.4999C1.31658 10.1094 0.683417 10.1094 0.292893 10.4999C-0.0976318 10.8904 -0.097632 11.5236 0.292893 11.9141L1.70711 10.4999ZM11.7071 20.4999L1.70711 10.4999L0.292893 11.9141L10.2929 21.9141L11.7071 20.4999Z" fill="white"/>
<path d="M2.56703 10C2.01475 10 1.56703 10.4477 1.56703 11C1.56703 11.5523 2.01475 12 2.56703 12L2.56703 10ZM25.707 10L2.56703 10L2.56703 12L25.707 12L25.707 10Z" fill="white"/>
<path d="M0.292896 10.2929C-0.0976287 10.6834 -0.0976283 11.3166 0.292896 11.7071C0.683421 12.0976 1.31659 12.0976 1.70711 11.7071L0.292896 10.2929ZM10.2929 0.292893L0.292896 10.2929L1.70711 11.7071L11.7071 1.70711L10.2929 0.292893Z" fill="white"/>
</svg>
