<svg width="60" height="28" viewBox="0 0 60 28" fill="none" xmlns="http://www.w3.org/2000/svg">
<path d="M16.157 16.7578L30.5901 12.2983C31.2238 12.1025 31.8962 12.0674 32.5469 12.196L45.0574 14.67C49.0928 15.4681 49.4404 21.1054 45.5335 22.393L32.4918 26.6914C31.8768 26.8941 31.2219 26.9445 30.5832 26.8382L16.6813 24.5253C12.5196 23.8329 12.126 18.0033 16.157 16.7578Z" fill="#1E3FF7" stroke="white" stroke-width="2"/>
<path d="M15.0664 11.4345L30.5322 6.33727C31.2025 6.11636 31.9193 6.07673 32.6099 6.22239L46.0202 9.05114C49.9784 9.88606 50.3376 15.3969 46.5213 16.7386L32.5467 21.6516C31.897 21.88 31.1992 21.9368 30.5211 21.8164L15.6195 19.1719C11.528 18.4458 11.1198 12.7352 15.0664 11.4345Z" fill="#1E3FF7" stroke="white" stroke-width="2"/>
<path d="M16.157 5.75784L30.5901 1.29832C31.2238 1.10251 31.8962 1.06737 32.5469 1.19604L45.0574 3.67003C49.0928 4.46806 49.4404 10.1054 45.5335 11.393L32.4918 15.6914C31.8768 15.8941 31.2219 15.9445 30.5832 15.8382L16.6813 13.5253C12.5196 12.8329 12.126 7.00331 16.157 5.75784Z" fill="#1E3FF7" stroke="white" stroke-width="2"/>
</svg>
