<svg id="Layer_1" data-name="Layer 1" xmlns="http://www.w3.org/2000/svg" viewBox="0 0 38.88 27.77"><defs><style>.cls-1{fill:#fff;stroke:#1e83f7;stroke-width:2px;}</style></defs><path class="cls-1" d="M4.84,16.65l14.44-4.46a3.91,3.91,0,0,1,1.95-.1l12.52,2.47a4,4,0,0,1,.47,7.72l-13,4.3a3.88,3.88,0,0,1-1.91.15L5.37,24.42A4,4,0,0,1,4.84,16.65Z" transform="translate(-0.01 -0.01)"/><path class="cls-1" d="M3.75,11.33l15.47-5.1a4.08,4.08,0,0,1,2.08-.12L34.71,8.94a4,4,0,0,1,.5,7.69l-14,4.91a4,4,0,0,1-2,.17L4.31,19.06A4,4,0,0,1,3.75,11.33Z" transform="translate(-0.01 -0.01)"/><path class="cls-1" d="M4.84,5.65,19.28,1.19a3.91,3.91,0,0,1,1.95-.1L33.75,3.56a4,4,0,0,1,.47,7.72l-13,4.3a3.88,3.88,0,0,1-1.91.15L5.37,13.42A4,4,0,0,1,4.84,5.65Z" transform="translate(-0.01 -0.01)"/></svg>