<svg width="600" height="420" viewBox="0 0 600 420" fill="none" xmlns="http://www.w3.org/2000/svg">
<path d="M550.827 92.8714C416.66 -25.5733 240.469 24.5379 169.145 64.3991C-39.0449 178.288 107.459 434.539 261.674 419.354C415.889 404.168 718.535 240.927 550.827 92.8714Z" fill="#66D4F2"/>
<rect x="333.394" y="64.4179" width="195.418" height="233.335" rx="20" transform="rotate(11.7599 333.394 64.4179)" fill="#A67748"/>
<path d="M330.002 89.4077C332.253 78.5939 342.844 71.6525 353.658 73.9037L486.772 101.616C497.586 103.867 504.528 114.458 502.276 125.272L465.106 303.821C462.855 314.635 452.263 321.576 441.449 319.325L308.335 291.613C297.521 289.362 290.58 278.771 292.831 267.957L330.002 89.4077Z" fill="#E5DE95"/>
<rect x="304.839" y="58.4734" width="193.96" height="233.335" rx="20" transform="rotate(11.7599 304.839 58.4734)" fill="#DFB080"/>
<path d="M300.763 78.0536C303.014 67.2397 313.605 60.2983 324.419 62.5496L335.297 64.8142L287.741 293.251L276.863 290.987C266.049 288.736 259.108 278.144 261.359 267.33L300.763 78.0536Z" fill="#C07753"/>
<rect x="344.067" y="101.397" width="99.6535" height="34.028" rx="10" transform="rotate(11.7599 344.067 101.397)" fill="#FCF5A4"/>
<rect x="36.5303" y="39.1908" width="247.871" height="295.965" rx="20" transform="rotate(-9.0972 36.5303 39.1908)" fill="#76A648"/>
<path d="M42.9466 65.0422C41.2002 54.1354 48.6261 43.878 59.5329 42.1315L240.429 13.1658C251.335 11.4193 261.593 18.8453 263.339 29.752L301.612 268.773C303.359 279.68 295.933 289.938 285.026 291.684L104.13 320.65C93.2235 322.396 82.9661 314.97 81.2197 304.064L42.9466 65.0422Z" fill="#E5DE95"/>
<rect y="45.0402" width="246.021" height="295.965" rx="20" transform="rotate(-9.0972 0 45.0402)" fill="#B4DF80"/>
<path d="M3.1622 64.7886C1.41577 53.8819 8.84167 43.6244 19.7484 41.878L38.9656 38.8009L85.7606 331.043L66.5434 334.12C55.6367 335.867 45.3792 328.441 43.6328 317.534L3.1622 64.7886Z" fill="#89C053"/>
<rect x="65.8816" y="78.2024" width="126.402" height="43.1616" rx="10" transform="rotate(-9.0972 65.8816 78.2024)" fill="#FCF5A4"/>
</svg>
