<svg width="604" height="477" viewBox="0 0 604 477" fill="none" xmlns="http://www.w3.org/2000/svg">
<path d="M49.1733 176.792C183.34 68.0948 359.531 114.082 430.855 150.663C639.045 255.18 492.541 490.342 338.326 476.407C184.111 462.471 -118.535 312.664 49.1733 176.792Z" fill="#66D4F2"/>
<rect x="286.698" y="338.822" width="160" height="295.111" rx="20" transform="rotate(-100.212 286.698 338.822)" fill="#B4DF80"/>
<rect x="300.821" y="322.899" width="133.667" height="262.556" rx="17.5" transform="rotate(-100.212 300.821 322.899)" stroke="#89C053" stroke-width="5"/>
<circle cx="416.858" cy="234.086" r="69.3333" transform="rotate(-10.2123 416.858 234.086)" fill="#89C053"/>
<circle cx="321.504" cy="251.264" r="13.3333" transform="rotate(-10.2123 321.504 251.264)" fill="#89C053"/>
<circle cx="512.212" cy="216.908" r="13.3333" transform="rotate(-10.2123 512.212 216.908)" fill="#89C053"/>
<path d="M417.091 187.714L419.644 201.891L412.148 203.241L409.594 189.065L417.091 187.714ZM430.315 266.352L432.643 279.279L425.147 280.629L422.818 267.703L430.315 266.352ZM432.761 249.638C432.432 247.812 431.816 246.319 430.912 245.158C430.041 243.992 428.778 243.045 427.126 242.318C425.505 241.584 423.378 240.975 420.744 240.491C416.291 239.639 412.316 238.602 408.822 237.379C405.353 236.119 402.495 234.302 400.249 231.928C397.996 229.523 396.495 226.237 395.744 222.073C395.029 218.1 395.353 214.486 396.718 211.23C398.083 207.974 400.29 205.261 403.339 203.091C406.415 200.884 410.179 199.379 414.632 198.576C418.028 197.965 421.195 197.923 424.135 198.452C427.069 198.949 429.705 199.995 432.044 201.592C434.376 203.156 436.322 205.237 437.882 207.833C439.441 210.43 440.544 213.522 441.19 217.111L427.398 219.595C427.052 217.673 426.538 216.012 425.856 214.614C425.174 213.215 424.343 212.091 423.363 211.243C422.416 210.388 421.354 209.819 420.178 209.534C418.996 209.218 417.749 209.178 416.435 209.415C414.481 209.767 412.949 210.44 411.838 211.434C410.727 212.428 410.001 213.633 409.661 215.051C409.348 216.43 409.341 217.953 409.641 219.619C409.935 221.253 410.48 222.626 411.276 223.74C412.104 224.848 413.348 225.781 415.006 226.541C416.658 227.269 418.861 227.93 421.615 228.526C426.068 229.377 430.032 230.449 433.506 231.742C436.98 233.034 439.841 234.867 442.088 237.241C444.335 239.615 445.833 242.884 446.583 247.049C447.328 251.181 447.002 254.878 445.605 258.14C444.202 261.369 441.909 264.065 438.726 266.226C435.538 268.355 431.669 269.829 427.119 270.649C424.172 271.18 421.172 271.323 418.118 271.08C415.058 270.804 412.184 269.999 409.496 268.664C406.808 267.329 404.497 265.331 402.562 262.669C400.621 259.976 399.264 256.483 398.491 252.19L412.331 249.697C412.752 252.035 413.408 253.935 414.3 255.395C415.186 256.823 416.209 257.912 417.369 258.662C418.556 259.374 419.825 259.807 421.175 259.961C422.526 260.115 423.858 260.073 425.172 259.836C427.222 259.467 428.837 258.796 430.018 257.822C431.231 256.843 432.058 255.652 432.5 254.249C432.968 252.809 433.055 251.272 432.761 249.638Z" fill="#B4DF80"/>
<rect x="201.891" y="387.477" width="180" height="332" rx="20" transform="rotate(-125.274 201.891 387.477)" fill="#B4DF80"/>
<rect x="208.621" y="364.956" width="151" height="296" rx="17.5" transform="rotate(-125.274 208.621 364.956)" stroke="#89C053" stroke-width="5"/>
<circle cx="284.624" cy="218.716" r="78" transform="rotate(-35.2736 284.624 218.716)" fill="#89C053"/>
<circle cx="195.636" cy="281.662" r="15" transform="rotate(-35.2736 195.636 281.662)" fill="#89C053"/>
<circle cx="373.612" cy="155.771" r="15" transform="rotate(-35.2736 373.612 155.771)" fill="#89C053"/>
<path d="M260.959 176.205L269.277 187.965L263.058 192.363L254.74 180.604L260.959 176.205ZM306.247 241.838L313.832 252.561L307.614 256.96L300.029 246.237L306.247 241.838ZM301.384 225.661C300.312 224.146 299.121 223.054 297.811 222.386C296.528 221.699 294.984 221.376 293.178 221.417C291.4 221.439 289.215 221.788 286.623 222.465C282.228 223.58 278.189 224.324 274.505 224.697C270.83 225.024 267.471 224.589 264.431 223.39C261.371 222.165 258.619 219.825 256.176 216.37C253.845 213.075 252.608 209.664 252.465 206.136C252.322 202.609 253.173 199.216 255.015 195.959C256.866 192.657 259.638 189.699 263.332 187.086C266.149 185.093 269.001 183.714 271.888 182.948C274.756 182.155 277.588 181.986 280.382 182.442C283.158 182.871 285.802 183.931 288.314 185.623C290.827 187.315 293.136 189.649 295.241 192.625L283.8 200.718C282.672 199.123 281.503 197.837 280.293 196.859C279.083 195.881 277.854 195.215 276.607 194.861C275.386 194.488 274.183 194.422 272.998 194.663C271.793 194.877 270.647 195.369 269.557 196.14C267.936 197.286 266.833 198.545 266.247 199.916C265.662 201.287 265.516 202.687 265.808 204.115C266.108 205.497 266.747 206.879 267.724 208.261C268.683 209.617 269.759 210.63 270.951 211.302C272.171 211.954 273.692 212.274 275.516 212.259C277.322 212.218 279.597 211.885 282.344 211.258C286.739 210.143 290.783 209.435 294.478 209.134C298.173 208.833 301.54 209.282 304.581 210.48C307.622 211.679 310.364 214.005 312.808 217.46C315.233 220.889 316.503 224.376 316.619 227.922C316.717 231.442 315.782 234.855 313.814 238.16C311.827 241.44 308.947 244.414 305.173 247.083C302.728 248.813 300.071 250.214 297.201 251.287C294.313 252.333 291.369 252.821 288.368 252.75C285.368 252.68 282.427 251.849 279.547 250.257C276.649 248.64 273.94 246.05 271.421 242.489L282.901 234.368C284.274 236.308 285.673 237.751 287.099 238.696C288.506 239.614 289.894 240.167 291.263 240.355C292.64 240.498 293.973 240.353 295.261 239.92C296.55 239.487 297.739 238.885 298.829 238.114C300.53 236.911 301.709 235.618 302.366 234.236C303.05 232.836 303.295 231.406 303.101 229.949C302.915 228.445 302.342 227.016 301.384 225.661Z" fill="#B4DF80"/>
<rect x="163" y="366.819" width="140" height="26" fill="#FCF5A4"/>
<ellipse cx="233" cy="392.319" rx="70" ry="22.5" fill="#FCF5A4"/>
<ellipse cx="233" cy="366.319" rx="70" ry="22.5" fill="#FCF5A4"/>
<ellipse cx="233" cy="366.319" rx="54" ry="15.5" fill="#F7DE58"/>
<rect x="272" y="387.552" width="126.197" height="23.4366" fill="#FCF5A4"/>
<ellipse cx="335.099" cy="410.537" rx="63.0986" ry="20.2817" fill="#FCF5A4"/>
<ellipse cx="335.099" cy="387.101" rx="63.0986" ry="20.2817" fill="#FCF5A4"/>
<ellipse cx="335.099" cy="387.101" rx="48.6761" ry="13.9718" fill="#F7DE58"/>
<rect x="236" y="346.576" width="102" height="18.9429" fill="#FCF5A4"/>
<ellipse cx="287" cy="365.155" rx="51" ry="16.3929" fill="#FCF5A4"/>
<ellipse cx="287" cy="346.212" rx="51" ry="16.3929" fill="#FCF5A4"/>
<ellipse cx="287" cy="346.212" rx="39.3429" ry="11.2929" fill="#F7DE58"/>
</svg>
