<svg width="33" height="29" viewBox="0 0 33 29" fill="none" xmlns="http://www.w3.org/2000/svg">
<path d="M2.44238 5.08124L15.9331 1.16458C16.3031 1.05715 16.6963 1.0589 17.0654 1.16962L30.0747 5.07241C30.9207 5.3262 31.5 6.10484 31.5 6.98806V20.6459C31.5 21.4637 31.0021 22.1992 30.2428 22.5029L17.2308 27.7077C16.7611 27.8956 16.2377 27.8985 15.766 27.7159L2.27801 22.4947C1.50774 22.1965 1 21.4555 1 20.6296V7.00194C1 6.11213 1.58786 5.32933 2.44238 5.08124Z" fill="#1E3FF7" stroke="white" stroke-width="2"/>
<path d="M8.5 24.5V9.98375C8.5 9.10259 9.07669 8.32524 9.91999 8.0697L25 3.5" stroke="white" stroke-width="2"/>
<path d="M25 24.5V9.98375C25 9.10259 24.4233 8.32524 23.58 8.0697L8.5 3.5" stroke="white" stroke-width="2"/>
</svg>
