<svg width="40" height="40" viewBox="0 0 40 40" fill="none" xmlns="http://www.w3.org/2000/svg">
<g clip-path="url(#clip0_37_36)">
<path d="M16.7 39.8C7.2 38.1 0 29.9 0 20C0 9 9 0 20 0C31 0 40 9 40 20C40 29.9 32.8 38.1 23.3 39.8L22.2 38.9H17.8L16.7 39.8Z" fill="white"/>
<path d="M27.8 25.6L28.7001 20H23.4V16.1C23.4 14.5 24 13.3 26.4 13.3H29V8.20005C27.6 8.00005 26 7.80005 24.6 7.80005C20 7.80005 16.8 10.6 16.8 15.6V20H11.8V25.6H16.8V39.7001C17.9 39.9001 19 40 20.1 40C21.2 40 22.3 39.9001 23.4 39.7001V25.6H27.8Z" fill="#1E83F7"/>
</g>
<defs>
<clipPath id="clip0_37_36">
<rect width="40" height="40" fill="white"/>
</clipPath>
</defs>
</svg>
