<svg width="27" height="27" viewBox="0 0 27 27" fill="none" xmlns="http://www.w3.org/2000/svg">
<circle cx="13.5" cy="13.5" r="12.5" fill="#1E3FF7" stroke="white" stroke-width="2"/>
<path d="M14.4766 5.82031V8.125H13.2578V5.82031H14.4766ZM14.3281 18.5781V20.6797H13.1094V18.5781H14.3281ZM15.1875 16.0156C15.1875 15.7188 15.1328 15.4661 15.0234 15.2578C14.9193 15.0495 14.7474 14.8646 14.5078 14.7031C14.2734 14.5417 13.9557 14.3854 13.5547 14.2344C12.8776 13.974 12.2812 13.6979 11.7656 13.4062C11.2552 13.1094 10.8568 12.7422 10.5703 12.3047C10.2839 11.862 10.1406 11.3021 10.1406 10.625C10.1406 9.97917 10.2943 9.41927 10.6016 8.94531C10.9089 8.47135 11.3333 8.10677 11.875 7.85156C12.4219 7.59115 13.0573 7.46094 13.7812 7.46094C14.3333 7.46094 14.8333 7.54427 15.2812 7.71094C15.7292 7.8724 16.1146 8.11198 16.4375 8.42969C16.7604 8.74219 17.0078 9.125 17.1797 9.57812C17.3516 10.0312 17.4375 10.5495 17.4375 11.1328H15.1953C15.1953 10.8203 15.1615 10.5443 15.0938 10.3047C15.026 10.0651 14.9271 9.86458 14.7969 9.70312C14.6719 9.54167 14.5208 9.42188 14.3438 9.34375C14.1667 9.26042 13.9714 9.21875 13.7578 9.21875C13.4401 9.21875 13.1797 9.28125 12.9766 9.40625C12.7734 9.53125 12.625 9.70052 12.5312 9.91406C12.4427 10.1224 12.3984 10.362 12.3984 10.6328C12.3984 10.8984 12.4453 11.1302 12.5391 11.3281C12.638 11.526 12.8073 11.7083 13.0469 11.875C13.2865 12.0365 13.6146 12.2031 14.0312 12.375C14.7083 12.6354 15.3021 12.9167 15.8125 13.2188C16.3229 13.5208 16.7214 13.8906 17.0078 14.3281C17.2943 14.7656 17.4375 15.3229 17.4375 16C17.4375 16.6719 17.2812 17.2448 16.9688 17.7188C16.6562 18.1875 16.2188 18.5469 15.6562 18.7969C15.0938 19.0417 14.4427 19.1641 13.7031 19.1641C13.224 19.1641 12.7474 19.1016 12.2734 18.9766C11.7995 18.8464 11.3698 18.638 10.9844 18.3516C10.599 18.0651 10.2917 17.6849 10.0625 17.2109C9.83333 16.7318 9.71875 16.1432 9.71875 15.4453H11.9688C11.9688 15.8255 12.0182 16.1432 12.1172 16.3984C12.2161 16.6484 12.3464 16.849 12.5078 17C12.6745 17.1458 12.862 17.25 13.0703 17.3125C13.2786 17.375 13.4896 17.4062 13.7031 17.4062C14.0365 17.4062 14.3099 17.3464 14.5234 17.2266C14.7422 17.1068 14.9062 16.9427 15.0156 16.7344C15.1302 16.5208 15.1875 16.2812 15.1875 16.0156Z" fill="white"/>
</svg>
