<svg width="37" height="25" viewBox="0 0 37 25" fill="none" xmlns="http://www.w3.org/2000/svg">
<path d="M2.56614 16.5459C1.65106 16.3425 1 15.5309 1 14.5935L0.999999 11.4065C0.999999 10.4691 1.65106 9.65749 2.56614 9.45414L23.5661 4.78747C24.8152 4.50991 26 5.46035 26 6.73985L26 19.2602C26 20.5396 24.8152 21.4901 23.5661 21.2125L2.56614 16.5459Z" fill="white" stroke="#1E83F7" stroke-width="2"/>
<path d="M6.75 17L6.28245 19.9092C6.12142 20.9112 6.7363 21.8749 7.7128 22.1511L12.0612 23.3809C13.2218 23.7092 14.4068 22.9431 14.5838 21.7499L15 18.9444" stroke="#1E83F7" stroke-width="2"/>
<path d="M35.4141 7.625L35.1562 15.5234H33.2812L33.0156 7.625H35.4141ZM32.9531 17.9688C32.9531 17.6354 33.0677 17.3594 33.2969 17.1406C33.5312 16.9167 33.8385 16.8047 34.2188 16.8047C34.6042 16.8047 34.9115 16.9167 35.1406 17.1406C35.3698 17.3594 35.4844 17.6354 35.4844 17.9688C35.4844 18.2917 35.3698 18.5651 35.1406 18.7891C34.9115 19.013 34.6042 19.125 34.2188 19.125C33.8385 19.125 33.5312 19.013 33.2969 18.7891C33.0677 18.5651 32.9531 18.2917 32.9531 17.9688Z" fill="#1E83F7"/>
</svg>
