<svg width="598" height="495" viewBox="0 0 598 495" fill="none" xmlns="http://www.w3.org/2000/svg">
<path d="M50.525 170.935C183.116 60.3204 359.949 103.77 431.792 139.322C641.463 240.835 498.354 478.08 343.955 466.362C189.556 454.645 -115.213 309.204 50.525 170.935Z" fill="#66D4F2"/>
<rect x="231.934" y="67" width="247.46" height="295.474" rx="20" fill="#76A648"/>
<path d="M234.179 93.5298C234.179 82.4841 243.133 73.5298 254.179 73.5298H437.009C448.055 73.5298 457.009 82.4841 457.009 93.5298V335.128C457.009 346.174 448.055 355.128 437.009 355.128H254.179C243.133 355.128 234.179 346.174 234.179 335.128V93.5298Z" fill="#E5DE95"/>
<rect x="195" y="67" width="245.613" height="295.474" rx="20" fill="#B4DF80"/>
<path d="M195 87C195 75.9543 203.954 67 215 67H234.397V362.474H215C203.954 362.474 195 353.52 195 342.474V87Z" fill="#89C053"/>
<rect x="254.71" y="110.09" width="126.192" height="43.09" rx="10" fill="#FCF5A4"/>
<path d="M538.811 12.6725C540.422 8.31944 546.578 8.31944 548.189 12.6725L557.422 37.6238C557.929 38.9924 559.008 40.0715 560.376 40.5779L585.327 49.8107C589.681 51.4215 589.681 57.5785 585.327 59.1893L560.376 68.4221C559.008 68.9285 557.929 70.0076 557.422 71.3762L548.189 96.3275C546.578 100.681 540.422 100.681 538.811 96.3275L529.578 71.3762C529.071 70.0076 527.992 68.9285 526.624 68.4221L501.673 59.1893C497.319 57.5785 497.319 51.4215 501.673 49.8107L526.624 40.5779C527.992 40.0715 529.071 38.9924 529.578 37.6238L538.811 12.6725Z" fill="#FAC252"/>
<path d="M122.311 315.673C123.922 311.319 130.078 311.319 131.689 315.673L152.131 370.915C152.637 372.284 153.716 373.363 155.085 373.869L210.327 394.311C214.681 395.922 214.681 402.078 210.327 403.689L155.085 424.131C153.716 424.637 152.637 425.716 152.131 427.085L131.689 482.327C130.078 486.681 123.922 486.681 122.311 482.327L101.869 427.085C101.363 425.716 100.284 424.637 98.9151 424.131L43.6725 403.689C39.3195 402.078 39.3194 395.922 43.6725 394.311L98.9151 373.869C100.284 373.363 101.363 372.284 101.869 370.915L122.311 315.673Z" fill="#FAC252"/>
</svg>
