<svg width="545" height="424" viewBox="0 0 545 424" fill="none" xmlns="http://www.w3.org/2000/svg">
<path d="M495.827 96.8714C361.66 -21.5733 185.469 28.5379 114.145 68.3991C-94.0449 182.288 52.4591 438.539 206.674 423.354C360.889 408.168 663.535 244.927 495.827 96.8714Z" fill="#66D4F2"/>
<path d="M202 190.948C202 246.7 156.781 252 101 252C45.2192 252 0 246.7 0 190.948C0 135.196 45.2192 90 101 90C156.781 90 202 135.196 202 190.948Z" fill="#E89C72"/>
<ellipse cx="101" cy="51.5" rx="52" ry="51.5" fill="#FFE3C2"/>
<path d="M429 266.09C429 341.802 367.215 349 291 349C214.785 349 153 341.802 153 266.09C153 190.377 214.785 129 291 129C367.215 129 429 190.377 429 266.09Z" fill="#776FE8"/>
<ellipse cx="291" cy="75" rx="71" ry="70" fill="#FFE3C2"/>
</svg>
