<svg width="40" height="40" viewBox="0 0 40 40" fill="none" xmlns="http://www.w3.org/2000/svg">
<g clip-path="url(#clip0_37_49)">
<path d="M20.0014 0.000610352C8.95524 0.000610352 0 8.9546 0 19.998C0 28.1893 4.92384 35.2242 11.9723 38.317C11.9126 36.9194 11.9592 35.2448 12.3172 33.7259C12.7039 32.1013 14.8934 22.8264 14.8934 22.8264C14.8934 22.8264 14.2552 21.5494 14.2552 19.6633C14.2552 16.6989 15.9726 14.4859 18.1101 14.4859C19.9313 14.4859 20.8081 15.8531 20.8081 17.4881C20.8081 19.3157 19.6434 22.0526 19.0441 24.5852C18.5434 26.7072 20.1077 28.4382 22.1986 28.4382C25.9888 28.4382 28.5416 23.5695 28.5416 17.8046C28.5416 13.4223 25.5892 10.1413 20.2193 10.1413C14.1514 10.1413 10.3742 14.6649 10.3742 19.7178C10.3742 21.4611 10.8853 22.6888 11.6921 23.6396C12.0606 24.078 12.1124 24.2544 11.9775 24.7551C11.8815 25.1235 11.6636 26.0094 11.5702 26.3595C11.4377 26.8668 11.0279 27.0471 10.5688 26.8616C7.77496 25.7188 6.47518 22.6615 6.47518 19.221C6.47518 13.539 11.2667 6.72794 20.7667 6.72794C28.4038 6.72794 33.4315 12.2517 33.4315 18.1832C33.4315 26.0287 29.0681 31.8911 22.6371 31.8911C20.4787 31.8911 18.4474 30.7223 17.7521 29.3967C17.7521 29.3967 16.59 34.006 16.3462 34.8944C15.9207 36.4354 15.0906 37.9783 14.3329 39.1794C16.1309 39.7099 18.0323 39.9991 20.0014 39.9991C31.0474 39.9991 40 31.0453 40 19.9979C40 8.9546 31.0474 0.000610352 20.0014 0.000610352Z" fill="white"/>
</g>
<defs>
<clipPath id="clip0_37_49">
<rect width="40" height="40" fill="white"/>
</clipPath>
</defs>
</svg>
