<svg width="50" height="28" viewBox="0 0 50 28" fill="none" xmlns="http://www.w3.org/2000/svg">
<path d="M7.56556 7.90866C5.79818 5.98533 7.16249 2.87878 9.77455 2.87878H33.5429C35.6413 2.87878 37.0914 4.97787 36.3488 6.94046L33.2243 15.198C32.7829 16.3646 31.6657 17.1364 30.4184 17.1364H17.3626C16.5229 17.1364 15.7217 16.7845 15.1536 16.1662L7.56556 7.90866Z" stroke="#1E83F7" stroke-width="2"/>
<circle cx="32.625" cy="23.625" r="2.625" stroke="#1E83F7" stroke-width="2"/>
<circle cx="19.625" cy="23.625" r="2.625" stroke="#1E83F7" stroke-width="2"/>
<path d="M14 20.7727H32.6949C33.0173 20.7727 33.3582 20.8188 33.6491 20.6797C34.2463 20.3941 35.1566 19.5679 35.8181 18.5758C36.9557 16.8693 39.8584 7.46702 41.2213 2.91553C41.4227 2.24322 41.7406 1.49306 42.3852 1.21556C42.8859 0.999999 44.0489 1 48.9999 1" stroke="#1E83F7" stroke-width="2" stroke-linecap="round"/>
</svg>
