<svg width="544" height="463" viewBox="0 0 544 463" fill="none" xmlns="http://www.w3.org/2000/svg">
<path d="M486.66 305.718C391.914 434.911 228.263 424.682 158.281 403.418C-45.5216 343.505 33.7278 91.4202 171.497 75.2906C309.266 59.1611 605.092 144.228 486.66 305.718Z" fill="#66D4F2"/>
<circle cx="254" cy="165" r="121" fill="#89C053"/>
<path d="M261.343 92.4404V114.047H249.917V92.4404H261.343ZM259.951 212.045V231.747H248.525V212.045H259.951ZM268.008 188.021C268.008 185.238 267.495 182.87 266.47 180.917C265.493 178.964 263.882 177.23 261.636 175.717C259.438 174.203 256.46 172.738 252.7 171.322C246.353 168.881 240.762 166.293 235.928 163.559C231.143 160.775 227.407 157.333 224.722 153.231C222.036 149.081 220.693 143.832 220.693 137.484C220.693 131.43 222.134 126.181 225.015 121.737C227.896 117.294 231.875 113.876 236.953 111.483C242.08 109.042 248.037 107.821 254.824 107.821C260 107.821 264.687 108.603 268.887 110.165C273.086 111.679 276.699 113.925 279.727 116.903C282.754 119.833 285.073 123.422 286.685 127.67C288.296 131.918 289.102 136.776 289.102 142.245H268.081C268.081 139.315 267.764 136.728 267.129 134.481C266.494 132.235 265.566 130.355 264.346 128.842C263.174 127.328 261.758 126.205 260.098 125.473C258.437 124.691 256.606 124.301 254.604 124.301C251.626 124.301 249.185 124.887 247.28 126.059C245.376 127.23 243.984 128.817 243.105 130.819C242.275 132.772 241.86 135.019 241.86 137.558C241.86 140.048 242.3 142.221 243.179 144.076C244.106 145.932 245.693 147.641 247.939 149.203C250.186 150.717 253.262 152.279 257.168 153.891C263.516 156.332 269.082 158.969 273.867 161.801C278.652 164.633 282.388 168.1 285.073 172.201C287.759 176.303 289.102 181.527 289.102 187.875C289.102 194.174 287.637 199.545 284.707 203.988C281.777 208.383 277.676 211.752 272.402 214.096C267.129 216.391 261.025 217.538 254.092 217.538C249.6 217.538 245.132 216.952 240.688 215.78C236.245 214.56 232.217 212.606 228.604 209.921C224.99 207.235 222.109 203.671 219.961 199.228C217.812 194.735 216.738 189.218 216.738 182.675H237.832C237.832 186.239 238.296 189.218 239.224 191.61C240.151 193.954 241.372 195.834 242.886 197.25C244.448 198.617 246.206 199.594 248.159 200.18C250.112 200.766 252.09 201.059 254.092 201.059C257.217 201.059 259.78 200.497 261.782 199.374C263.833 198.251 265.371 196.713 266.396 194.76C267.471 192.758 268.008 190.512 268.008 188.021Z" fill="#B4DF80"/>
<rect x="87" y="36" width="80" height="16" rx="8" fill="#89C053"/>
<path d="M32.3879 51.239C26.2618 48.3571 26.2618 39.6429 32.3879 36.761L86.5945 11.2604C91.9004 8.76433 98 12.6357 98 18.4994L98 69.5006C98 75.3643 91.9004 79.2357 86.5946 76.7396L32.3879 51.239Z" fill="#89C053"/>
<rect x="426" y="289" width="80" height="16" rx="8" transform="rotate(-180 426 289)" fill="#89C053"/>
<path d="M480.612 273.761C486.738 276.643 486.738 285.357 480.612 288.239L426.405 313.74C421.1 316.236 415 312.364 415 306.501L415 255.499C415 249.636 421.1 245.764 426.405 248.26L480.612 273.761Z" fill="#89C053"/>
</svg>
